<svg width="955" height="352" viewBox="0 0 955 352" fill="none" xmlns="http://www.w3.org/2000/svg">
<rect x="61.582" y="27.7786" width="31.7691" height="279.557" fill="#D88794"/>
<rect x="112.413" y="195.635" width="31.7691" height="111.701" fill="#D88794"/>
<rect x="223.883" y="85.1237" width="31.7691" height="222.212" fill="#D88794"/>
<rect x="274.714" y="232.041" width="31.7691" height="75.2951" fill="#D88794"/>
<rect x="384.736" y="125.389" width="31.7691" height="181.947" fill="#D88794"/>
<rect x="435.566" y="53.5839" width="31.7691" height="253.752" fill="#D88794"/>
<rect x="548.486" y="222.587" width="31.7691" height="84.7488" fill="#D88794"/>
<rect x="599.316" y="148.203" width="31.7691" height="159.133" fill="#D88794"/>
<rect x="709.337" y="241.953" width="31.7691" height="65.3828" fill="#D88794"/>
<rect x="760.168" y="195.513" width="31.7691" height="111.823" fill="#D88794"/>
<rect x="871.639" y="37.814" width="31.7691" height="269.522" fill="#D88794"/>
<rect x="922.47" y="158.993" width="31.7691" height="148.343" fill="#D88794"/>
<path opacity="0.402121" d="M1.95898 12.5397V11.8097L5.45654 8.31213C5.92627 7.83394 6.27327 7.41077 6.49756 7.0426C6.72184 6.67021 6.83398 6.31051 6.83398 5.9635C6.83398 5.46838 6.66048 5.06002 6.31348 4.7384C5.9707 4.41679 5.53271 4.25598 4.99951 4.25598C4.40283 4.25598 3.91829 4.43583 3.5459 4.79553C3.1735 5.15523 2.97461 5.63977 2.94922 6.24915L1.98438 6.18567C2.0013 5.34355 2.29753 4.65377 2.87305 4.11633C3.44857 3.5789 4.16162 3.31018 5.01221 3.31018C5.82471 3.31018 6.49756 3.55774 7.03076 4.05286C7.5682 4.54374 7.83691 5.17216 7.83691 5.93811C7.83691 6.84794 7.27832 7.84029 6.16113 8.91516L3.49512 11.5875H7.95117V12.5397H1.95898ZM11.7915 12.6666C11.034 12.6666 10.359 12.4508 9.7666 12.0192C9.17839 11.5833 8.81657 11.0374 8.68115 10.3815L9.57617 10.0958C9.71159 10.574 9.98242 10.9655 10.3887 11.2701C10.7992 11.5706 11.2668 11.7208 11.7915 11.7208C12.367 11.7208 12.8494 11.5283 13.2388 11.1432C13.6323 10.7539 13.8291 10.2799 13.8291 9.72131C13.8291 9.13733 13.6323 8.64433 13.2388 8.24231C12.8494 7.84029 12.367 7.63928 11.7915 7.63928C11.453 7.63928 11.1292 7.69641 10.8203 7.81067C10.5156 7.92069 10.2744 8.07515 10.0967 8.27405L9.25244 8.06458L9.65869 3.43713H14.2734V4.36389H10.541L10.2427 7.29016C10.4289 7.12935 10.6722 7.0024 10.9727 6.9093C11.2731 6.8162 11.5841 6.76965 11.9058 6.76965C12.7437 6.76965 13.4419 7.04895 14.0005 7.60754C14.5633 8.16614 14.8447 8.87496 14.8447 9.73401C14.8447 10.5507 14.5485 11.2448 13.9561 11.816C13.3636 12.3831 12.6421 12.6666 11.7915 12.6666ZM19.2119 12.6666C18.1836 12.6666 17.3774 12.2498 16.7935 11.4161C16.2137 10.5825 15.9238 9.4399 15.9238 7.9884C15.9238 6.53691 16.2137 5.39433 16.7935 4.56067C17.3774 3.72701 18.1836 3.31018 19.2119 3.31018C20.236 3.31018 21.0379 3.72701 21.6177 4.56067C22.1974 5.39433 22.4873 6.53691 22.4873 7.9884C22.4873 9.4399 22.1974 10.5825 21.6177 11.4161C21.0379 12.2498 20.236 12.6666 19.2119 12.6666ZM19.2119 11.7208C19.9313 11.7208 20.4899 11.3971 20.8877 10.7496C21.2897 10.1022 21.4907 9.18176 21.4907 7.9884C21.4907 6.79504 21.2897 5.87463 20.8877 5.22717C20.4899 4.57971 19.9313 4.25598 19.2119 4.25598C18.4883 4.25598 17.9276 4.57971 17.5298 5.22717C17.1362 5.8704 16.9395 6.79081 16.9395 7.9884C16.9395 9.18599 17.1362 10.1085 17.5298 10.756C17.9276 11.3992 18.4883 11.7208 19.2119 11.7208Z" fill="#25233A"/>
<path opacity="0.402121" d="M1.13379 69.8848V69.1548L4.63135 65.6572C5.10107 65.179 5.44808 64.7559 5.67236 64.3877C5.89665 64.0153 6.00879 63.6556 6.00879 63.3086C6.00879 62.8135 5.83529 62.4051 5.48828 62.0835C5.14551 61.7619 4.70752 61.6011 4.17432 61.6011C3.57764 61.6011 3.0931 61.7809 2.7207 62.1406C2.34831 62.5003 2.14941 62.9849 2.12402 63.5942L1.15918 63.5308C1.17611 62.6886 1.47233 61.9989 2.04785 61.4614C2.62337 60.924 3.33643 60.6553 4.18701 60.6553C4.99951 60.6553 5.67236 60.9028 6.20557 61.3979C6.743 61.8888 7.01172 62.5173 7.01172 63.2832C7.01172 64.193 6.45312 65.1854 5.33594 66.2603L2.66992 68.9326H7.12598V69.8848H1.13379ZM11.4551 70.0117C10.4268 70.0117 9.62061 69.5949 9.03662 68.7612C8.45687 67.9276 8.16699 66.785 8.16699 65.3335C8.16699 63.882 8.45687 62.7394 9.03662 61.9058C9.62061 61.0721 10.4268 60.6553 11.4551 60.6553C12.4792 60.6553 13.2811 61.0721 13.8608 61.9058C14.4406 62.7394 14.7305 63.882 14.7305 65.3335C14.7305 66.785 14.4406 67.9276 13.8608 68.7612C13.2811 69.5949 12.4792 70.0117 11.4551 70.0117ZM11.4551 69.0659C12.1745 69.0659 12.7331 68.7422 13.1309 68.0947C13.5329 67.4473 13.7339 66.5269 13.7339 65.3335C13.7339 64.1401 13.5329 63.2197 13.1309 62.5723C12.7331 61.9248 12.1745 61.6011 11.4551 61.6011C10.7314 61.6011 10.1707 61.9248 9.77295 62.5723C9.37939 63.2155 9.18262 64.1359 9.18262 65.3335C9.18262 66.5311 9.37939 67.4536 9.77295 68.1011C10.1707 68.7443 10.7314 69.0659 11.4551 69.0659ZM19.2119 70.0117C18.1836 70.0117 17.3774 69.5949 16.7935 68.7612C16.2137 67.9276 15.9238 66.785 15.9238 65.3335C15.9238 63.882 16.2137 62.7394 16.7935 61.9058C17.3774 61.0721 18.1836 60.6553 19.2119 60.6553C20.236 60.6553 21.0379 61.0721 21.6177 61.9058C22.1974 62.7394 22.4873 63.882 22.4873 65.3335C22.4873 66.785 22.1974 67.9276 21.6177 68.7612C21.0379 69.5949 20.236 70.0117 19.2119 70.0117ZM19.2119 69.0659C19.9313 69.0659 20.4899 68.7422 20.8877 68.0947C21.2897 67.4473 21.4907 66.5269 21.4907 65.3335C21.4907 64.1401 21.2897 63.2197 20.8877 62.5723C20.4899 61.9248 19.9313 61.6011 19.2119 61.6011C18.4883 61.6011 17.9276 61.9248 17.5298 62.5723C17.1362 63.2155 16.9395 64.1359 16.9395 65.3335C16.9395 66.5311 17.1362 67.4536 17.5298 68.1011C17.9276 68.7443 18.4883 69.0659 19.2119 69.0659Z" fill="#25233A"/>
<path opacity="0.402121" d="M7.37988 120.995V130.097H6.38965V122.347L4.29492 124.143V122.937L6.6626 120.995H7.37988ZM11.7915 130.224C11.034 130.224 10.359 130.008 9.7666 129.577C9.17839 129.141 8.81657 128.595 8.68115 127.939L9.57617 127.653C9.71159 128.132 9.98242 128.523 10.3887 128.828C10.7992 129.128 11.2668 129.278 11.7915 129.278C12.367 129.278 12.8494 129.086 13.2388 128.701C13.6323 128.311 13.8291 127.837 13.8291 127.279C13.8291 126.695 13.6323 126.202 13.2388 125.8C12.8494 125.398 12.367 125.197 11.7915 125.197C11.453 125.197 11.1292 125.254 10.8203 125.368C10.5156 125.478 10.2744 125.633 10.0967 125.832L9.25244 125.622L9.65869 120.995H14.2734V121.921H10.541L10.2427 124.848C10.4289 124.687 10.6722 124.56 10.9727 124.467C11.2731 124.374 11.5841 124.327 11.9058 124.327C12.7437 124.327 13.4419 124.606 14.0005 125.165C14.5633 125.724 14.8447 126.432 14.8447 127.292C14.8447 128.108 14.5485 128.802 13.9561 129.374C13.3636 129.941 12.6421 130.224 11.7915 130.224ZM19.2119 130.224C18.1836 130.224 17.3774 129.807 16.7935 128.974C16.2137 128.14 15.9238 126.997 15.9238 125.546C15.9238 124.094 16.2137 122.952 16.7935 122.118C17.3774 121.285 18.1836 120.868 19.2119 120.868C20.236 120.868 21.0379 121.285 21.6177 122.118C22.1974 122.952 22.4873 124.094 22.4873 125.546C22.4873 126.997 22.1974 128.14 21.6177 128.974C21.0379 129.807 20.236 130.224 19.2119 130.224ZM19.2119 129.278C19.9313 129.278 20.4899 128.955 20.8877 128.307C21.2897 127.66 21.4907 126.739 21.4907 125.546C21.4907 124.353 21.2897 123.432 20.8877 122.785C20.4899 122.137 19.9313 121.813 19.2119 121.813C18.4883 121.813 17.9276 122.137 17.5298 122.785C17.1362 123.428 16.9395 124.348 16.9395 125.546C16.9395 126.743 17.1362 127.666 17.5298 128.313C17.9276 128.957 18.4883 129.278 19.2119 129.278Z" fill="#25233A"/>
<path opacity="0.402121" d="M6.55469 179.773V188.876H5.56445V181.125L3.46973 182.922V181.716L5.8374 179.773H6.55469ZM11.4551 189.003C10.4268 189.003 9.62061 188.586 9.03662 187.752C8.45687 186.919 8.16699 185.776 8.16699 184.325C8.16699 182.873 8.45687 181.731 9.03662 180.897C9.62061 180.063 10.4268 179.646 11.4551 179.646C12.4792 179.646 13.2811 180.063 13.8608 180.897C14.4406 181.731 14.7305 182.873 14.7305 184.325C14.7305 185.776 14.4406 186.919 13.8608 187.752C13.2811 188.586 12.4792 189.003 11.4551 189.003ZM11.4551 188.057C12.1745 188.057 12.7331 187.733 13.1309 187.086C13.5329 186.438 13.7339 185.518 13.7339 184.325C13.7339 183.131 13.5329 182.211 13.1309 181.563C12.7331 180.916 12.1745 180.592 11.4551 180.592C10.7314 180.592 10.1707 180.916 9.77295 181.563C9.37939 182.207 9.18262 183.127 9.18262 184.325C9.18262 185.522 9.37939 186.445 9.77295 187.092C10.1707 187.735 10.7314 188.057 11.4551 188.057ZM19.2119 189.003C18.1836 189.003 17.3774 188.586 16.7935 187.752C16.2137 186.919 15.9238 185.776 15.9238 184.325C15.9238 182.873 16.2137 181.731 16.7935 180.897C17.3774 180.063 18.1836 179.646 19.2119 179.646C20.236 179.646 21.0379 180.063 21.6177 180.897C22.1974 181.731 22.4873 182.873 22.4873 184.325C22.4873 185.776 22.1974 186.919 21.6177 187.752C21.0379 188.586 20.236 189.003 19.2119 189.003ZM19.2119 188.057C19.9313 188.057 20.4899 187.733 20.8877 187.086C21.2897 186.438 21.4907 185.518 21.4907 184.325C21.4907 183.131 21.2897 182.211 20.8877 181.563C20.4899 180.916 19.9313 180.592 19.2119 180.592C18.4883 180.592 17.9276 180.916 17.5298 181.563C17.1362 182.207 16.9395 183.127 16.9395 184.325C16.9395 185.522 17.1362 186.445 17.5298 187.092C17.9276 187.735 18.4883 188.057 19.2119 188.057Z" fill="#25233A"/>
<path opacity="0.402121" d="M11.6895 247.782C10.932 247.782 10.257 247.566 9.66455 247.134C9.07633 246.698 8.71452 246.152 8.5791 245.496L9.47412 245.211C9.60954 245.689 9.88037 246.08 10.2866 246.385C10.6971 246.686 11.1647 246.836 11.6895 246.836C12.265 246.836 12.7474 246.643 13.1367 246.258C13.5303 245.869 13.7271 245.395 13.7271 244.836C13.7271 244.252 13.5303 243.759 13.1367 243.357C12.7474 242.955 12.265 242.754 11.6895 242.754C11.3509 242.754 11.0272 242.811 10.7183 242.926C10.4136 243.036 10.1724 243.19 9.99463 243.389L9.15039 243.18L9.55664 238.552H14.1714V239.479H10.439L10.1406 242.405C10.3268 242.244 10.5701 242.117 10.8706 242.024C11.1711 241.931 11.4821 241.885 11.8037 241.885C12.6416 241.885 13.3398 242.164 13.8984 242.723C14.4613 243.281 14.7427 243.99 14.7427 244.849C14.7427 245.666 14.4465 246.36 13.854 246.931C13.2616 247.498 12.54 247.782 11.6895 247.782ZM19.1099 247.782C18.0815 247.782 17.2754 247.365 16.6914 246.531C16.1117 245.697 15.8218 244.555 15.8218 243.103C15.8218 241.652 16.1117 240.509 16.6914 239.676C17.2754 238.842 18.0815 238.425 19.1099 238.425C20.134 238.425 20.9359 238.842 21.5156 239.676C22.0954 240.509 22.3853 241.652 22.3853 243.103C22.3853 244.555 22.0954 245.697 21.5156 246.531C20.9359 247.365 20.134 247.782 19.1099 247.782ZM19.1099 246.836C19.8293 246.836 20.3879 246.512 20.7856 245.865C21.1877 245.217 21.3887 244.297 21.3887 243.103C21.3887 241.91 21.1877 240.99 20.7856 240.342C20.3879 239.695 19.8293 239.371 19.1099 239.371C18.3862 239.371 17.8255 239.695 17.4277 240.342C17.0342 240.985 16.8374 241.906 16.8374 243.103C16.8374 244.301 17.0342 245.224 17.4277 245.871C17.8255 246.514 18.3862 246.836 19.1099 246.836Z" fill="#25233A"/>
<path opacity="0.402121" d="M20.0328 306.56C19.0045 306.56 18.1983 306.143 17.6143 305.31C17.0346 304.476 16.7447 303.334 16.7447 301.882C16.7447 300.431 17.0346 299.288 17.6143 298.454C18.1983 297.621 19.0045 297.204 20.0328 297.204C21.0569 297.204 21.8588 297.621 22.4385 298.454C23.0183 299.288 23.3082 300.431 23.3082 301.882C23.3082 303.334 23.0183 304.476 22.4385 305.31C21.8588 306.143 21.0569 306.56 20.0328 306.56ZM20.0328 305.615C20.7522 305.615 21.3108 305.291 21.7086 304.643C22.1106 303.996 22.3116 303.075 22.3116 301.882C22.3116 300.689 22.1106 299.768 21.7086 299.121C21.3108 298.473 20.7522 298.15 20.0328 298.15C19.3092 298.15 18.7484 298.473 18.3507 299.121C17.9571 299.764 17.7603 300.684 17.7603 301.882C17.7603 303.08 17.9571 304.002 18.3507 304.65C18.7484 305.293 19.3092 305.615 20.0328 305.615Z" fill="#25233A"/>
<path opacity="0.402121" d="M96.0398 331.611C96.6069 331.611 97.157 331.721 97.6902 331.941C98.2234 332.161 98.6318 332.44 98.9153 332.779L98.3186 333.534C98.0562 333.234 97.7135 332.997 97.2903 332.823C96.8713 332.646 96.4334 332.557 95.9763 332.557C95.4347 332.557 94.9861 332.69 94.6306 332.957C94.2794 333.223 94.1038 333.564 94.1038 333.979C94.1038 334.309 94.1969 334.588 94.3831 334.817C94.5735 335.045 94.8189 335.223 95.1194 335.35C95.4199 335.477 95.752 335.591 96.116 335.693C96.4841 335.794 96.8502 335.906 97.2141 336.029C97.5781 336.152 97.9102 336.3 98.2107 336.473C98.5112 336.643 98.7545 336.886 98.9407 337.203C99.1311 337.516 99.2263 337.893 99.2263 338.333C99.2263 339.078 98.9386 339.704 98.363 340.212C97.7918 340.716 97.0449 340.967 96.1223 340.967C95.4706 340.967 94.8507 340.845 94.2625 340.599C93.6742 340.354 93.1664 340.032 92.739 339.634L93.3674 338.892C94.218 339.645 95.1363 340.022 96.1223 340.022C96.7359 340.022 97.2374 339.867 97.6267 339.558C98.0203 339.245 98.2171 338.841 98.2171 338.346C98.2171 338.096 98.1578 337.878 98.0393 337.692C97.9251 337.506 97.7685 337.356 97.5696 337.241C97.3749 337.123 97.1506 337.019 96.8967 336.93C96.6428 336.841 96.3741 336.759 96.0906 336.683C95.8113 336.607 95.5299 336.526 95.2463 336.442C94.9628 336.357 94.6941 336.251 94.4402 336.124C94.1863 335.993 93.9599 335.841 93.761 335.667C93.5663 335.494 93.4098 335.269 93.2913 334.994C93.177 334.715 93.1199 334.398 93.1199 334.042C93.1199 333.344 93.3949 332.764 93.9451 332.303C94.4994 331.842 95.1977 331.611 96.0398 331.611ZM106.539 337.394C106.539 337.487 106.53 337.618 106.513 337.787H101.232C101.27 338.485 101.503 339.048 101.93 339.476C102.362 339.899 102.906 340.11 103.562 340.11C104.019 340.11 104.429 340.017 104.793 339.831C105.161 339.645 105.436 339.391 105.618 339.069L106.367 339.552C106.126 339.988 105.754 340.333 105.25 340.587C104.747 340.84 104.175 340.967 103.536 340.967C103.096 340.967 102.677 340.883 102.28 340.714C101.886 340.544 101.543 340.314 101.251 340.022C100.963 339.73 100.735 339.378 100.566 338.968C100.396 338.553 100.312 338.111 100.312 337.641C100.312 336.731 100.623 335.963 101.245 335.337C101.867 334.707 102.627 334.391 103.524 334.391C104.374 334.391 105.089 334.681 105.669 335.261C106.249 335.836 106.539 336.547 106.539 337.394ZM101.289 337.045H105.561C105.523 336.503 105.307 336.059 104.914 335.712C104.525 335.36 104.048 335.185 103.486 335.185C102.931 335.185 102.453 335.356 102.051 335.699C101.653 336.037 101.399 336.486 101.289 337.045ZM111.147 334.391C112.04 334.391 112.787 334.707 113.388 335.337C113.993 335.963 114.296 336.744 114.296 337.679C114.296 338.289 114.158 338.845 113.883 339.349C113.608 339.852 113.229 340.248 112.747 340.536C112.264 340.824 111.731 340.967 111.147 340.967C110.69 340.967 110.25 340.862 109.827 340.65C109.408 340.434 109.108 340.168 108.926 339.85V343.234H107.973V334.525H108.926V335.496C109.116 335.183 109.421 334.92 109.84 334.709C110.263 334.497 110.699 334.391 111.147 334.391ZM110.976 340.072C111.653 340.072 112.218 339.846 112.671 339.393C113.128 338.936 113.356 338.365 113.356 337.679C113.356 336.994 113.128 336.422 112.671 335.965C112.218 335.504 111.653 335.274 110.976 335.274C110.561 335.274 110.161 335.384 109.776 335.604C109.395 335.819 109.112 336.097 108.926 336.435V338.917C109.108 339.256 109.389 339.533 109.77 339.749C110.155 339.964 110.557 340.072 110.976 340.072Z" fill="#25233A"/>
<path opacity="0.402121" d="M255.443 331.611C256.01 331.611 256.56 331.721 257.094 331.941C257.627 332.161 258.035 332.44 258.319 332.779L257.722 333.534C257.46 333.234 257.117 332.997 256.694 332.823C256.275 332.646 255.837 332.557 255.38 332.557C254.838 332.557 254.389 332.69 254.034 332.957C253.683 333.223 253.507 333.564 253.507 333.979C253.507 334.309 253.6 334.588 253.786 334.817C253.977 335.045 254.222 335.223 254.523 335.35C254.823 335.477 255.155 335.591 255.519 335.693C255.887 335.794 256.254 335.906 256.617 336.029C256.981 336.152 257.314 336.3 257.614 336.473C257.914 336.643 258.158 336.886 258.344 337.203C258.534 337.516 258.63 337.893 258.63 338.333C258.63 339.078 258.342 339.704 257.766 340.212C257.195 340.716 256.448 340.967 255.526 340.967C254.874 340.967 254.254 340.845 253.666 340.599C253.078 340.354 252.57 340.032 252.142 339.634L252.771 338.892C253.621 339.645 254.54 340.022 255.526 340.022C256.139 340.022 256.641 339.867 257.03 339.558C257.424 339.245 257.62 338.841 257.62 338.346C257.62 338.096 257.561 337.878 257.443 337.692C257.328 337.506 257.172 337.356 256.973 337.241C256.778 337.123 256.554 337.019 256.3 336.93C256.046 336.841 255.777 336.759 255.494 336.683C255.215 336.607 254.933 336.526 254.65 336.442C254.366 336.357 254.097 336.251 253.844 336.124C253.59 335.993 253.363 335.841 253.164 335.667C252.97 335.494 252.813 335.269 252.695 334.994C252.58 334.715 252.523 334.398 252.523 334.042C252.523 333.344 252.798 332.764 253.348 332.303C253.903 331.842 254.601 331.611 255.443 331.611ZM265.942 337.394C265.942 337.487 265.934 337.618 265.917 337.787H260.636C260.674 338.485 260.906 339.048 261.334 339.476C261.765 339.899 262.309 340.11 262.965 340.11C263.422 340.11 263.833 340.017 264.197 339.831C264.565 339.645 264.84 339.391 265.022 339.069L265.771 339.552C265.53 339.988 265.157 340.333 264.654 340.587C264.15 340.84 263.579 340.967 262.94 340.967C262.5 340.967 262.081 340.883 261.683 340.714C261.289 340.544 260.947 340.314 260.655 340.022C260.367 339.73 260.138 339.378 259.969 338.968C259.8 338.553 259.715 338.111 259.715 337.641C259.715 336.731 260.026 335.963 260.648 335.337C261.27 334.707 262.03 334.391 262.927 334.391C263.778 334.391 264.493 334.681 265.073 335.261C265.652 335.836 265.942 336.547 265.942 337.394ZM260.693 337.045H264.965C264.927 336.503 264.711 336.059 264.317 335.712C263.928 335.36 263.452 335.185 262.889 335.185C262.335 335.185 261.856 335.356 261.454 335.699C261.057 336.037 260.803 336.486 260.693 337.045ZM270.551 334.391C271.443 334.391 272.19 334.707 272.791 335.337C273.396 335.963 273.699 336.744 273.699 337.679C273.699 338.289 273.561 338.845 273.286 339.349C273.011 339.852 272.633 340.248 272.15 340.536C271.668 340.824 271.135 340.967 270.551 340.967C270.094 340.967 269.653 340.862 269.23 340.65C268.811 340.434 268.511 340.168 268.329 339.85V343.234H267.377V334.525H268.329V335.496C268.519 335.183 268.824 334.92 269.243 334.709C269.666 334.497 270.102 334.391 270.551 334.391ZM270.379 340.072C271.056 340.072 271.621 339.846 272.074 339.393C272.531 338.936 272.76 338.365 272.76 337.679C272.76 336.994 272.531 336.422 272.074 335.965C271.621 335.504 271.056 335.274 270.379 335.274C269.964 335.274 269.565 335.384 269.179 335.604C268.799 335.819 268.515 336.097 268.329 336.435V338.917C268.511 339.256 268.792 339.533 269.173 339.749C269.558 339.964 269.96 340.072 270.379 340.072Z" fill="#25233A"/>
<path opacity="0.402121" d="M415.549 331.738H416.469L421.566 339.044V331.738H422.556V340.84H421.642L416.52 333.547V340.84H415.549V331.738ZM425.057 335.343C425.688 334.709 426.462 334.391 427.381 334.391C428.299 334.391 429.073 334.709 429.704 335.343C430.339 335.974 430.656 336.753 430.656 337.679C430.656 338.606 430.339 339.387 429.704 340.022C429.073 340.652 428.299 340.967 427.381 340.967C426.462 340.967 425.688 340.652 425.057 340.022C424.431 339.387 424.118 338.606 424.118 337.679C424.118 336.753 424.431 335.974 425.057 335.343ZM427.381 335.293C426.725 335.293 426.172 335.521 425.724 335.978C425.275 336.435 425.051 337.002 425.051 337.679C425.051 338.352 425.275 338.919 425.724 339.38C426.172 339.842 426.725 340.072 427.381 340.072C428.037 340.072 428.591 339.842 429.044 339.38C429.496 338.915 429.723 338.348 429.723 337.679C429.723 337.006 429.496 336.442 429.044 335.984C428.595 335.523 428.041 335.293 427.381 335.293ZM437.334 334.525L434.642 340.84H433.811L431.107 334.525H432.135L434.223 339.647L436.293 334.525H437.334Z" fill="#25233A"/>
<path opacity="0.402121" d="M577.846 331.738C578.468 331.738 579.054 331.852 579.604 332.081C580.159 332.305 580.635 332.616 581.032 333.014C581.43 333.407 581.743 333.886 581.972 334.448C582.205 335.007 582.321 335.608 582.321 336.251C582.321 336.894 582.205 337.502 581.972 338.073C581.743 338.64 581.43 339.127 581.032 339.533C580.635 339.935 580.159 340.254 579.604 340.491C579.054 340.724 578.468 340.84 577.846 340.84H575.028V331.738H577.846ZM577.897 339.907C578.87 339.907 579.68 339.56 580.328 338.866C580.98 338.168 581.305 337.296 581.305 336.251C581.305 335.214 580.982 334.359 580.334 333.687C579.691 333.014 578.878 332.677 577.897 332.677H575.999V339.907H577.897ZM589.532 337.394C589.532 337.487 589.523 337.618 589.507 337.787H584.225C584.263 338.485 584.496 339.048 584.924 339.476C585.355 339.899 585.899 340.11 586.555 340.11C587.012 340.11 587.422 340.017 587.786 339.831C588.155 339.645 588.43 339.391 588.612 339.069L589.361 339.552C589.119 339.988 588.747 340.333 588.243 340.587C587.74 340.84 587.169 340.967 586.53 340.967C586.089 340.967 585.67 340.883 585.273 340.714C584.879 340.544 584.536 340.314 584.244 340.022C583.957 339.73 583.728 339.378 583.559 338.968C583.39 338.553 583.305 338.111 583.305 337.641C583.305 336.731 583.616 335.963 584.238 335.337C584.86 334.707 585.62 334.391 586.517 334.391C587.367 334.391 588.083 334.681 588.662 335.261C589.242 335.836 589.532 336.547 589.532 337.394ZM584.282 337.045H588.554C588.516 336.503 588.301 336.059 587.907 335.712C587.518 335.36 587.042 335.185 586.479 335.185C585.924 335.185 585.446 335.356 585.044 335.699C584.646 336.037 584.392 336.486 584.282 337.045ZM596.514 339.342C596.265 339.842 595.888 340.237 595.384 340.529C594.881 340.821 594.312 340.967 593.677 340.967C592.759 340.967 591.982 340.652 591.347 340.022C590.717 339.387 590.402 338.606 590.402 337.679C590.402 337.07 590.545 336.513 590.833 336.01C591.121 335.506 591.515 335.111 592.014 334.823C592.517 334.535 593.072 334.391 593.677 334.391C594.278 334.391 594.817 334.531 595.296 334.81C595.774 335.085 596.119 335.453 596.33 335.915L595.524 336.34C595.389 336.023 595.152 335.769 594.813 335.578C594.479 335.388 594.1 335.293 593.677 335.293C593.008 335.293 592.45 335.521 592.001 335.978C591.557 336.435 591.335 337.002 591.335 337.679C591.335 338.352 591.559 338.919 592.008 339.38C592.46 339.842 593.017 340.072 593.677 340.072C594.126 340.072 594.528 339.975 594.883 339.78C595.243 339.582 595.514 339.306 595.696 338.955L596.514 339.342Z" fill="#25233A"/>
<path opacity="0.402121" d="M738.446 340.022C738.488 340.03 738.554 340.034 738.643 340.034C739.13 340.034 739.494 339.882 739.735 339.577C739.976 339.273 740.097 338.801 740.097 338.162V331.738H741.087V338.384C741.087 339.209 740.892 339.844 740.503 340.288C740.118 340.733 739.58 340.955 738.89 340.955C738.658 340.955 738.493 340.946 738.395 340.929L738.446 340.022ZM747.936 334.525H748.882V340.84H747.936V339.85C747.754 340.168 747.453 340.434 747.035 340.65C746.616 340.862 746.18 340.967 745.727 340.967C744.83 340.967 744.079 340.652 743.474 340.022C742.868 339.387 742.566 338.602 742.566 337.667C742.566 336.736 742.868 335.957 743.474 335.331C744.079 334.704 744.83 334.391 745.727 334.391C746.184 334.391 746.622 334.499 747.041 334.715C747.464 334.927 747.762 335.191 747.936 335.508V334.525ZM745.879 340.072C746.294 340.072 746.694 339.964 747.079 339.749C747.464 339.533 747.75 339.26 747.936 338.93V336.448C747.754 336.101 747.47 335.819 747.085 335.604C746.704 335.384 746.302 335.274 745.879 335.274C745.202 335.274 744.635 335.502 744.178 335.959C743.725 336.412 743.499 336.981 743.499 337.667C743.499 338.352 743.725 338.926 744.178 339.387C744.635 339.844 745.202 340.072 745.879 340.072ZM753.858 334.391C754.645 334.391 755.276 334.647 755.75 335.159C756.224 335.671 756.461 336.353 756.461 337.203V340.84H755.509V337.33C755.509 336.721 755.339 336.234 755.001 335.87C754.662 335.502 754.216 335.318 753.661 335.318C753.243 335.318 752.849 335.42 752.481 335.623C752.117 335.822 751.84 336.092 751.649 336.435V340.84H750.697V334.525H751.649V335.508C751.857 335.166 752.159 334.895 752.557 334.696C752.959 334.493 753.393 334.391 753.858 334.391Z" fill="#25233A"/>
<path opacity="0.402121" d="M899.737 331.738H904.822V332.677H900.708V335.616H904.377V336.549H900.708V340.84H899.737V331.738ZM911.639 337.394C911.639 337.487 911.631 337.618 911.614 337.787H906.332C906.37 338.485 906.603 339.048 907.031 339.476C907.462 339.899 908.006 340.11 908.662 340.11C909.119 340.11 909.529 340.017 909.893 339.831C910.262 339.645 910.537 339.391 910.719 339.069L911.468 339.552C911.226 339.988 910.854 340.333 910.35 340.587C909.847 340.84 909.276 340.967 908.637 340.967C908.196 340.967 907.777 340.883 907.38 340.714C906.986 340.544 906.643 340.314 906.351 340.022C906.064 339.73 905.835 339.378 905.666 338.968C905.497 338.553 905.412 338.111 905.412 337.641C905.412 336.731 905.723 335.963 906.345 335.337C906.967 334.707 907.727 334.391 908.624 334.391C909.474 334.391 910.19 334.681 910.769 335.261C911.349 335.836 911.639 336.547 911.639 337.394ZM906.389 337.045H910.661C910.623 336.503 910.408 336.059 910.014 335.712C909.625 335.36 909.149 335.185 908.586 335.185C908.031 335.185 907.553 335.356 907.151 335.699C906.753 336.037 906.499 336.486 906.389 337.045ZM916.247 334.391C916.836 334.391 917.369 334.535 917.847 334.823C918.329 335.106 918.708 335.5 918.983 336.004C919.258 336.503 919.396 337.057 919.396 337.667C919.396 338.602 919.093 339.387 918.488 340.022C917.887 340.652 917.14 340.967 916.247 340.967C915.795 340.967 915.357 340.862 914.933 340.65C914.514 340.434 914.212 340.168 914.026 339.85V340.84H913.074V331.738H914.026V335.508C914.208 335.191 914.508 334.927 914.927 334.715C915.35 334.499 915.79 334.391 916.247 334.391ZM916.076 340.072C916.753 340.072 917.318 339.844 917.771 339.387C918.228 338.926 918.456 338.352 918.456 337.667C918.456 336.981 918.228 336.412 917.771 335.959C917.318 335.502 916.753 335.274 916.076 335.274C915.653 335.274 915.251 335.384 914.87 335.604C914.489 335.819 914.208 336.101 914.026 336.448V338.93C914.216 339.26 914.502 339.533 914.883 339.749C915.263 339.964 915.661 340.072 916.076 340.072Z" fill="#25233A"/>
</svg>
